<mxfile host="65bd71144e">
    <diagram id="SAwknqJDlzle3xyn6ASj" name="Page-1">
        <mxGraphModel dx="935" dy="693" grid="1" gridSize="10" guides="1" tooltips="1" connect="1" arrows="1" fold="1" page="1" pageScale="1" pageWidth="850" pageHeight="1100" math="0" shadow="0">
            <root>
                <mxCell id="0"/>
                <mxCell id="1" parent="0"/>
                <mxCell id="2" value="&lt;div style=&quot;color: rgb(212 , 212 , 212) ; background-color: rgb(30 , 30 , 30) ; font-family: &amp;#34;droid sans mono&amp;#34; , &amp;#34;monospace&amp;#34; , monospace ; font-size: 16px ; line-height: 22px&quot;&gt;&lt;span style=&quot;color: #4ec9b0&quot;&gt;Socket&lt;/span&gt;&lt;/div&gt;" style="rounded=0;whiteSpace=wrap;html=1;" vertex="1" parent="1">
                    <mxGeometry x="370" y="120" width="120" height="60" as="geometry"/>
                </mxCell>
                <mxCell id="4" style="edgeStyle=none;html=1;entryX=0.5;entryY=1;entryDx=0;entryDy=0;endArrow=block;endFill=0;" edge="1" parent="1" source="3" target="2">
                    <mxGeometry relative="1" as="geometry"/>
                </mxCell>
                <mxCell id="5" value="&lt;div style=&quot;color: rgb(212 , 212 , 212) ; background-color: rgb(30 , 30 , 30) ; font-family: &amp;#34;droid sans mono&amp;#34; , &amp;#34;monospace&amp;#34; , monospace ; font-size: 16px ; line-height: 22px&quot;&gt;&lt;span style=&quot;color: #4ec9b0&quot;&gt;UnixSocketClient&lt;/span&gt;&lt;/div&gt;" style="rounded=0;whiteSpace=wrap;html=1;" vertex="1" parent="1">
                    <mxGeometry x="130" y="560" width="170" height="80" as="geometry"/>
                </mxCell>
                <mxCell id="3" value="&lt;span style=&quot;color: rgb(78 , 201 , 176) ; font-family: &amp;#34;droid sans mono&amp;#34; , &amp;#34;monospace&amp;#34; , monospace ; font-size: 16px ; background-color: rgb(30 , 30 , 30)&quot;&gt;FdSocket&lt;/span&gt;" style="rounded=0;whiteSpace=wrap;html=1;" vertex="1" parent="1">
                    <mxGeometry x="370" y="260" width="120" height="60" as="geometry"/>
                </mxCell>
                <mxCell id="9" value="&lt;div style=&quot;color: rgb(212 , 212 , 212) ; background-color: rgb(30 , 30 , 30) ; font-family: &amp;#34;droid sans mono&amp;#34; , &amp;#34;monospace&amp;#34; , monospace ; font-size: 16px ; line-height: 22px&quot;&gt;&lt;span style=&quot;color: #4ec9b0&quot;&gt;SocketServer&lt;/span&gt;&lt;/div&gt;" style="rounded=0;whiteSpace=wrap;html=1;align=center;verticalAlign=top;" vertex="1" parent="1">
                    <mxGeometry x="600" y="340" width="200" height="140" as="geometry"/>
                </mxCell>
                <mxCell id="23" value="&lt;div style=&quot;color: rgb(212 , 212 , 212) ; background-color: rgb(30 , 30 , 30) ; font-family: &amp;#34;droid sans mono&amp;#34; , &amp;#34;monospace&amp;#34; , monospace ; font-size: 16px ; line-height: 22px&quot;&gt;&lt;span style=&quot;color: #4ec9b0&quot;&gt;Builder&lt;/span&gt;&lt;/div&gt;" style="rounded=0;whiteSpace=wrap;html=1;" vertex="1" parent="1">
                    <mxGeometry x="635" y="410" width="120" height="60" as="geometry"/>
                </mxCell>
                <mxCell id="24" value="&lt;div style=&quot;color: rgb(212 , 212 , 212) ; background-color: rgb(30 , 30 , 30) ; font-family: &amp;#34;droid sans mono&amp;#34; , &amp;#34;monospace&amp;#34; , monospace ; font-size: 16px ; line-height: 22px&quot;&gt;&lt;span style=&quot;color: #4ec9b0&quot;&gt;FdSocket&lt;/span&gt;&lt;/div&gt;" style="rounded=0;whiteSpace=wrap;html=1;" vertex="1" parent="1">
                    <mxGeometry x="685" y="395" width="95" height="30" as="geometry"/>
                </mxCell>
                <mxCell id="25" value="&lt;div style=&quot;color: rgb(212 , 212 , 212) ; background-color: rgb(30 , 30 , 30) ; font-family: &amp;#34;droid sans mono&amp;#34; , &amp;#34;monospace&amp;#34; , monospace ; font-size: 16px ; line-height: 22px&quot;&gt;&lt;span style=&quot;color: #4ec9b0&quot;&gt;FdSocket&lt;/span&gt;&lt;/div&gt;" style="rounded=0;whiteSpace=wrap;html=1;" vertex="1" parent="1">
                    <mxGeometry x="230" y="550" width="100" height="30" as="geometry"/>
                </mxCell>
                <mxCell id="27" style="edgeStyle=none;html=1;entryX=0.5;entryY=1;entryDx=0;entryDy=0;endArrow=block;endFill=0;" edge="1" parent="1" source="26" target="9">
                    <mxGeometry relative="1" as="geometry"/>
                </mxCell>
                <mxCell id="26" value="&lt;div style=&quot;color: rgb(212 , 212 , 212) ; background-color: rgb(30 , 30 , 30) ; font-family: &amp;#34;droid sans mono&amp;#34; , &amp;#34;monospace&amp;#34; , monospace ; font-size: 16px ; line-height: 22px&quot;&gt;&lt;span style=&quot;color: #4ec9b0&quot;&gt;UnixSocketServer&lt;/span&gt;&lt;/div&gt;" style="rounded=0;whiteSpace=wrap;html=1;" vertex="1" parent="1">
                    <mxGeometry x="600" y="560" width="200" height="80" as="geometry"/>
                </mxCell>
            </root>
        </mxGraphModel>
    </diagram>
</mxfile>